<?xml version="1.0" standalone="no"?>
<!DOCTYPE svg PUBLIC "-//W3C//DTD SVG 20010904//EN"
 "http://www.w3.org/TR/2001/REC-SVG-20010904/DTD/svg10.dtd">
<svg version="1.0" xmlns="http://www.w3.org/2000/svg"
 width="300.000000pt" height="100.000000pt" viewBox="0 0 300.000000 100.000000"
 preserveAspectRatio="xMidYMid meet">

<g transform="translate(0.000000,100.000000) scale(0.100000,-0.100000)"
fill="#000000" stroke="none">
<path d="M30 495 l0 -405 1470 0 1470 0 0 405 0 405 -1470 0 -1470 0 0 -405z
m2920 0 l0 -385 -1450 0 -1450 0 0 385 0 385 1450 0 1450 0 0 -385z"/>
<path d="M110 490 l0 -330 693 2 692 3 3 328 2 327 -695 0 -695 0 0 -330z
m903 92 c15 -14 27 -29 27 -34 0 -15 -25 -8 -42 12 -38 43 -110 31 -136 -23
-42 -88 73 -165 136 -91 l26 29 -44 5 c-70 8 -63 30 9 30 68 0 73 -7 46 -60
-21 -41 -53 -60 -101 -60 -51 0 -90 28 -103 76 -17 60 9 116 64 140 39 17 83
8 118 -24z m-404 4 c31 -28 42 -80 28 -124 -15 -46 -62 -72 -129 -72 l-48 0 0
111 0 111 64 -4 c45 -3 71 -10 85 -22z m141 -86 c0 -91 -3 -110 -15 -110 -12
0 -15 19 -15 110 0 91 3 110 15 110 12 0 15 -19 15 -110z m400 0 c0 -91 -3
-110 -15 -110 -12 0 -15 19 -15 110 0 91 3 110 15 110 12 0 15 -19 15 -110z"/>
<path d="M480 500 l0 -80 44 0 c62 0 91 25 91 80 0 55 -29 80 -91 80 l-44 0 0
-80z"/>
<path d="M1750 499 l0 -111 76 4 c71 3 78 6 105 36 32 35 38 81 17 127 -17 38
-58 55 -133 55 l-65 0 0 -111z m134 35 c33 -32 5 -84 -46 -84 -27 0 -28 2 -28
50 0 49 1 50 29 50 16 0 37 -7 45 -16z"/>
<path d="M2000 500 l0 -110 30 0 30 0 0 110 0 110 -30 0 -30 0 0 -110z"/>
<path d="M2110 500 l0 -110 29 0 c29 0 30 2 33 53 l3 52 40 -52 c27 -37 46
-53 62 -53 23 0 23 2 23 110 l0 110 -29 0 c-29 0 -30 -2 -33 -51 l-3 -50 -38
50 c-27 37 -44 51 -62 51 l-25 0 0 -110z"/>
<path d="M2350 500 l0 -110 80 0 c79 0 80 0 80 25 0 23 -4 25 -45 25 -38 0
-45 3 -45 20 0 17 7 20 41 20 36 0 40 2 37 23 -2 18 -10 23 -40 25 -54 5 -51
30 5 34 35 2 43 7 45 26 3 21 1 22 -77 22 l-81 0 0 -110z"/>
<path d="M2550 500 l0 -110 30 0 c27 0 30 3 30 30 0 19 5 30 14 30 7 0 19 -13
26 -30 10 -25 18 -30 46 -30 38 0 42 9 18 46 -15 23 -15 26 0 43 24 26 21 86
-6 111 -17 16 -35 20 -90 20 l-68 0 0 -110z m118 38 c3 -18 -32 -43 -48 -33
-6 3 -10 17 -10 31 0 22 4 25 27 22 16 -2 29 -10 31 -20z"/>
</g>
</svg>
